<?xml version="1.0" encoding="utf-8"?>
<!-- Generator: Adobe Illustrator 25.3.1, SVG Export Plug-In . SVG Version: 6.00 Build 0)  -->
<svg version="1.1" id="Camada_1" xmlns="http://www.w3.org/2000/svg" xmlns:xlink="http://www.w3.org/1999/xlink" x="0px" y="0px"
	 viewBox="0 0 500 86.3" style="enable-background:new 0 0 500 86.3;" xml:space="preserve">
<style type="text/css">
	.st0{fill:#FFFFFF;}
</style>
<g transform="matrix(.45453 0 0 .45453 30 156.683)">
	<path class="st0" d="M69.5-154.9H18.8v-72.3H-14v72.3h-52v-186.5h51.9v69.6h32.8v-69.6h50.7L69.5-154.9L69.5-154.9z M301.9-154.1
		c51.9,0,94.3-43.2,94.3-95.8c0-53.4-42.4-94.7-94.3-94.7c-52.6,0-79.2,38.2-85.6,53.8c0-23.1-23.1-50.7-49.9-50.7H79.8v186.6h80.6
		c32.8,0,55.9-28,55.9-52.6C223.6-192.3,249.4-154.1,301.9-154.1L301.9-154.1z M154-229.9c7.5,0,13.5,7.3,13.5,15.6
		c0,8.7-6,16-13.5,16h-25.8v-31.6H154z M154-299.9c7.5,0,13.5,7.3,13.5,15.6c0,8.3-6,15.6-13.5,15.6h-25.8v-31.2H154z M188.1-249.9
		c6-0.4,15.8-7.3,19.5-11.4c-1.4,5-1.4,20.8,0,25.8C203.5-241.6,194.1-248.8,188.1-249.9z M254.6-249.9c0-26.3,21.4-47.5,47.7-47.4
		c26.4,0.2,47.4,21.7,47.1,48.1c-0.4,26-21.4,46.9-47.4,46.9C275.8-202.3,254.6-223.5,254.6-249.9L254.6-249.9z M301.9-212.5
		c20.2,0,37.2-16.6,37.2-37.4s-17-37.2-37.2-37.2c-20.8,0-37.4,16.4-37.4,37.2S281.1-212.5,301.9-212.5z"/>
	<path class="st0" d="M667.2-275.4c-1-45.2-33-69.1-72.2-69.1c-21.5,0-40.9,7.2-54.1,21.2c-13.2-14-32.6-21.2-54.1-21.2
		c-39.2,0-71.2,24-72.2,69.2v103.4c0,9.5,7.7,17.1,17.1,17.1h16.2c1.6,0,2.9-1.3,2.9-2.9v-117.4c0.7-22.3,16.5-34.1,36-34.1
		s35.3,11.8,36,34.1V-172c0,9.5,7.7,17.1,17.1,17.1h16.2c1.6,0,2.9-1.3,2.9-2.9v-117.4c0.7-22.3,16.5-34.1,36-34.1
		s35.3,11.8,36,34.1v103.1c0,9.5,7.7,17.1,17.1,17.1h16.2c1.6,0,2.9-1.3,2.9-2.9v-117.4C667.3-275.2,667.2-275.3,667.2-275.4
		L667.2-275.4z M1031.9-341.6h-27.5c-7.6,0-14.7,3.8-19,10.1l-30.4,45c-4,5.9-12.6,5.9-16.6,0l-30.4-45c-4.2-6.3-11.4-10.1-19-10.1
		h-27.5c-1.7,0-2.7,1.9-1.8,3.3l54.2,80.4c3.9,5.8,3.9,13.4,0,19.2l-54.2,80.4c-1,1.4,0.1,3.3,1.8,3.3H889c7.6,0,14.7-3.8,19-10.1
		l30.4-45c4-5.9,12.6-5.9,16.6,0l30.4,45c4.2,6.3,11.4,10.1,19,10.1h27.5c1.7,0,2.7-1.9,1.8-3.3l-54.3-80.3
		c-3.9-5.8-3.9-13.4,0-19.2l54.2-80.4C1034.6-339.6,1033.6-341.6,1031.9-341.6z M847.3-341.6h-16.2c-8.2,0-15.1,5.8-16.8,13.5
		c-14.4-11-32.5-16.6-52-16.6c-47.4,0-85.9,33-85.9,95.3s38.4,95.3,85.9,95.3c19.4,0,37.3-5.5,51.7-16.3c0.8,8.7,8.1,15.6,17.1,15.6
		h16.2c1.6,0,2.9-1.3,2.9-2.9v-181C850.1-340.3,848.9-341.6,847.3-341.6z M762.3-189.5c-28.3,0-51.3-20.7-51.3-59.8
		s23-59.8,51.3-59.8s51.3,20.7,51.3,59.8S790.6-189.5,762.3-189.5z"/>
</g>
</svg>
