<?xml version="1.0" encoding="utf-8"?>
<!-- Generator: Adobe Illustrator 25.3.1, SVG Export Plug-In . SVG Version: 6.00 Build 0)  -->
<svg version="1.1" id="Camada_1" xmlns="http://www.w3.org/2000/svg" xmlns:xlink="http://www.w3.org/1999/xlink" x="0px" y="0px"
	 viewBox="0 0 32 32" style="enable-background:new 0 0 32 32;" xml:space="preserve">
<style type="text/css">
	.st0{fill:#E51B3E;}
	.st1{fill:#383838;}
</style>
<g>
	<path class="st0" d="M13.62,6.58c-0.86-0.85-2.06-1.27-3.59-1.27H2.32C2.25,5.3,2.17,5.3,2.1,5.33C2.03,5.35,1.97,5.39,1.92,5.44
		C1.86,5.5,1.82,5.56,1.8,5.63C1.78,5.71,1.78,5.78,1.79,5.85v20.31c-0.01,0.07,0,0.15,0.02,0.21c0.02,0.07,0.06,0.13,0.11,0.18
		c0.05,0.05,0.11,0.09,0.18,0.11c0.07,0.02,0.14,0.03,0.22,0.02h7.71c1.52,0,2.72-0.43,3.59-1.29c0.87-0.86,1.3-2.05,1.29-3.57V9.49
		C14.92,7.95,14.48,7.42,13.62,6.58z M11.85,21.7c0,1.55-0.75,2.32-2.26,2.32H5.18c-0.05,0.01-0.09,0-0.14-0.01
		C4.99,24,4.95,23.97,4.92,23.94c-0.03-0.03-0.06-0.07-0.07-0.12c-0.02-0.04-0.02-0.09-0.01-0.14V8.28c0-0.21,0.11-0.31,0.35-0.31
		h4.42c1.5,0,2.26,0.11,2.26,1.65V21.7z"/>
	<path class="st1" d="M29.87,5.31h-0.91c-0.21,0-0.31,0.13-0.31,0.38v9.8c0,0.19-0.11,0.28-0.31,0.28h-8.78
		c-0.21,0-0.31-0.1-0.31-0.28v-9.8c0-0.26-0.12-0.38-0.35-0.38h-0.91c-0.21,0-0.31,0.13-0.31,0.38v20.63c0,0.26,0.1,0.38,0.31,0.38
		h0.91c0.23,0,0.35-0.12,0.35-0.38v-8.86c0-0.19,0.1-0.28,0.31-0.28h8.78c0.21,0,0.31,0.1,0.31,0.28v8.85c0,0.26,0.1,0.38,0.31,0.38
		h0.91c0.23,0,0.34-0.12,0.34-0.38V5.68C30.22,5.43,30.1,5.31,29.87,5.31z"/>
</g>
</svg>
